<svg width="512" height="512" viewBox="0 0 512 512" xmlns="http://www.w3.org/2000/svg">
<path d="
  M 256,70
  L 275.3,206.0
  L 376.7,113.9
  L 303.4,229.7
  L 368.7,237.0
  L 309.8,266.3
  L 418.3,350.0
  L 291.3,298.3
  L 295.4,364.0
  L 256.0,311.0
  L 192.8,432.7
  L 221.8,298.3
  L 158.1,313.7
  L 203.6,266.3
  L 72.7,289.2
  L 209.9,229.7
  L 136.6,113.9
  L 238.5,206.0
  Z
" fill="none" stroke="#000510" stroke-width="28" stroke-linejoin="round" opacity="0.75" transform="translate(3,3)"/>
<path d="
  M 256,70
  L 275.3,206.0
  L 376.7,113.9
  L 303.4,229.7
  L 368.7,237.0
  L 309.8,266.3
  L 418.3,350.0
  L 291.3,298.3
  L 295.4,364.0
  L 256.0,311.0
  L 192.8,432.7
  L 221.8,298.3
  L 158.1,313.7
  L 203.6,266.3
  L 72.7,289.2
  L 209.9,229.7
  L 136.6,113.9
  L 238.5,206.0
  Z
" fill="none" stroke="#4fc3f7" stroke-width="20" stroke-linejoin="round"/>
</svg>
