<svg width="192" height="192" viewBox="0 0 192 192" xmlns="http://www.w3.org/2000/svg">
<path d="
  M 96,26
  L 103.2,77.2
  L 141.3,42.7
  L 113.8,86.1
  L 138.3,88.9
  L 116.2,99.9
  L 156.9,131.3
  L 109.2,111.8
  L 110.8,136.5
  L 96.0,116.6
  L 72.3,162.3
  L 83.2,111.8
  L 59.3,117.6
  L 76.3,99.9
  L 27.3,108.4
  L 78.7,86.1
  L 51.2,42.7
  L 89.4,77.2
  Z
" fill="none" stroke="#000510" stroke-width="11" stroke-linejoin="round" opacity="0.75" transform="translate(1,1)"/>
<path d="
  M 96,26
  L 103.2,77.2
  L 141.3,42.7
  L 113.8,86.1
  L 138.3,88.9
  L 116.2,99.9
  L 156.9,131.3
  L 109.2,111.8
  L 110.8,136.5
  L 96.0,116.6
  L 72.3,162.3
  L 83.2,111.8
  L 59.3,117.6
  L 76.3,99.9
  L 27.3,108.4
  L 78.7,86.1
  L 51.2,42.7
  L 89.4,77.2
  Z
" fill="none" stroke="#4fc3f7" stroke-width="8" stroke-linejoin="round"/>
</svg>
